<svg width="32" height="32" viewBox="0 0 32 32" xmlns="http://www.w3.org/2000/svg">
  <!-- Ultra simplified version for favicon -->
  <g transform="translate(16, 16)">
    <!-- Shield -->
    <path d="M-8,-12 L8,-12 C10,-12 12,-10 12,-8 L12,0 C12,6 6,10 0,12 C-6,10 -12,6 -12,0 L-12,-8 C-12,-10 -10,-12 -8,-12 Z" 
          fill="#10d9a3"/>
    
    <!-- Simplified lock -->
    <circle cx="0" cy="-2" r="4" fill="#1e293b"/>
    <rect x="-2" y="-2" width="4" height="4" fill="#10d9a3" rx="0.5"/>
    
    <!-- QR hint dots -->
    <rect x="-6" y="-8" width="2" height="2" fill="#1e293b" rx="0.5"/>
    <rect x="4" y="-8" width="2" height="2" fill="#1e293b" rx="0.5"/>
    <rect x="-6" y="4" width="2" height="2" fill="#1e293b" rx="0.5"/>
    <rect x="4" y="4" width="2" height="2" fill="#1e293b" rx="0.5"/>
  </g>
</svg>