<svg width="512" height="512" viewBox="0 0 512 512" xmlns="http://www.w3.org/2000/svg">
  <!-- Shield shape with QR code pattern and lock -->
  <g transform="translate(256, 256)">
    <!-- Shield path -->
    <path d="M-120,-180 L120,-180 C140,-180 160,-160 160,-140 L160,-20 C160,80 80,160 0,200 C-80,160 -160,80 -160,-20 L-160,-140 C-160,-160 -140,-180 -120,-180 Z" 
          fill="#10d9a3" stroke="none"/>
    
    <!-- QR code pattern inside shield -->
    <!-- Top row -->
    <rect x="-100" y="-140" width="40" height="40" fill="#1e293b" rx="4"/>
    <rect x="-50" y="-140" width="40" height="40" fill="#1e293b" rx="4"/>
    <rect x="0" y="-140" width="40" height="40" fill="#1e293b" rx="4"/>
    <rect x="50" y="-140" width="40" height="40" fill="#1e293b" rx="4"/>
    <rect x="100" y="-140" width="20" height="40" fill="#1e293b" rx="4"/>
    
    <!-- Middle row with lock -->
    <rect x="-100" y="-90" width="40" height="40" fill="#1e293b" rx="4"/>
    <rect x="60" y="-90" width="40" height="40" fill="#1e293b" rx="4"/>
    
    <!-- Lock symbol in center -->
    <g transform="translate(0, -40)">
      <!-- Lock shackle -->
      <path d="M-15,-15 L-15,-25 C-15,-35 -10,-40 0,-40 C10,-40 15,-35 15,-25 L15,-15" 
            fill="none" stroke="#1e293b" stroke-width="8" stroke-linecap="round"/>
      <!-- Lock body -->
      <rect x="-20" y="-15" width="40" height="30" fill="#1e293b" rx="4"/>
      <!-- Keyhole -->
      <circle cx="0" cy="-5" r="4" fill="#10d9a3"/>
      <rect x="-2" y="-5" width="4" height="10" fill="#10d9a3"/>
    </g>
    
    <!-- Bottom rows -->
    <rect x="-100" y="-40" width="40" height="40" fill="#1e293b" rx="4"/>
    <rect x="60" y="-40" width="40" height="40" fill="#1e293b" rx="4"/>
    
    <rect x="-100" y="10" width="40" height="40" fill="#1e293b" rx="4"/>
    <rect x="-50" y="10" width="40" height="40" fill="#1e293b" rx="4"/>
    <rect x="0" y="10" width="40" height="40" fill="#1e293b" rx="4"/>
    <rect x="50" y="10" width="40" height="40" fill="#1e293b" rx="4"/>
    
    <rect x="-100" y="60" width="40" height="40" fill="#1e293b" rx="4"/>
    <rect x="-50" y="60" width="40" height="40" fill="#1e293b" rx="4"/>
    <rect x="50" y="60" width="40" height="40" fill="#1e293b" rx="4"/>
    <rect x="100" y="60" width="20" height="40" fill="#1e293b" rx="4"/>
    
    <!-- Bottom center vertical line -->
    <rect x="-10" y="100" width="20" height="60" fill="#1e293b" rx="4"/>
  </g>
</svg>