<svg width="512" height="512" viewBox="0 0 512 512" xmlns="http://www.w3.org/2000/svg">
  <!-- Simplified icon version for small sizes -->
  <g transform="translate(256, 256)">
    <!-- Shield path -->
    <path d="M-120,-180 L120,-180 C140,-180 160,-160 160,-140 L160,-20 C160,80 80,160 0,200 C-80,160 -160,80 -160,-20 L-160,-140 C-160,-160 -140,-180 -120,-180 Z" 
          fill="#10d9a3" stroke="none"/>
    
    <!-- Simplified QR pattern -->
    <rect x="-80" y="-120" width="50" height="50" fill="#1e293b" rx="8"/>
    <rect x="30" y="-120" width="50" height="50" fill="#1e293b" rx="8"/>
    
    <!-- Central lock -->
    <g transform="translate(0, -20)">
      <!-- Lock shackle -->
      <path d="M-25,-25 L-25,-40 C-25,-55 -15,-65 0,-65 C15,-65 25,-55 25,-40 L25,-25" 
            fill="none" stroke="#1e293b" stroke-width="12" stroke-linecap="round"/>
      <!-- Lock body -->
      <rect x="-35" y="-25" width="70" height="50" fill="#1e293b" rx="8"/>
      <!-- Keyhole -->
      <circle cx="0" cy="-10" r="8" fill="#10d9a3"/>
      <rect x="-4" y="-10" width="8" height="20" fill="#10d9a3"/>
    </g>
    
    <!-- Bottom QR elements -->
    <rect x="-80" y="40" width="50" height="50" fill="#1e293b" rx="8"/>
    <rect x="30" y="40" width="50" height="50" fill="#1e293b" rx="8"/>
  </g>
</svg>