<svg width="1200" height="630" viewBox="0 0 1200 630" xmlns="http://www.w3.org/2000/svg">
  <!-- Background -->
  <defs>
    <linearGradient id="bgGradient" x1="0%" y1="0%" x2="100%" y2="100%">
      <stop offset="0%" style="stop-color:#1e40af;stop-opacity:1" />
      <stop offset="100%" style="stop-color:#7c3aed;stop-opacity:1" />
    </linearGradient>
  </defs>
  
  <rect width="1200" height="630" fill="url(#bgGradient)"/>
  
  <!-- Logo with transparent background -->
  <g transform="translate(150, 250) scale(0.4)">
    <!-- Shield path -->
    <path d="M-120,-180 L120,-180 C140,-180 160,-160 160,-140 L160,-20 C160,80 80,160 0,200 C-80,160 -160,80 -160,-20 L-160,-140 C-160,-160 -140,-180 -120,-180 Z" 
          fill="#10d9a3" stroke="none"/>
    
    <!-- QR code pattern inside shield -->
    <!-- Top row -->
    <rect x="-100" y="-140" width="40" height="40" fill="#1e293b" rx="4"/>
    <rect x="-50" y="-140" width="40" height="40" fill="#1e293b" rx="4"/>
    <rect x="0" y="-140" width="40" height="40" fill="#1e293b" rx="4"/>
    <rect x="50" y="-140" width="40" height="40" fill="#1e293b" rx="4"/>
    <rect x="100" y="-140" width="20" height="40" fill="#1e293b" rx="4"/>
    
    <!-- Middle row with lock -->
    <rect x="-100" y="-90" width="40" height="40" fill="#1e293b" rx="4"/>
    <rect x="60" y="-90" width="40" height="40" fill="#1e293b" rx="4"/>
    
    <!-- Lock symbol in center -->
    <g transform="translate(0, -40)">
      <!-- Lock shackle -->
      <path d="M-15,-15 L-15,-25 C-15,-35 -10,-40 0,-40 C10,-40 15,-35 15,-25 L15,-15" 
            fill="none" stroke="#1e293b" stroke-width="8" stroke-linecap="round"/>
      <!-- Lock body -->
      <rect x="-20" y="-15" width="40" height="30" fill="#1e293b" rx="4"/>
      <!-- Keyhole -->
      <circle cx="0" cy="-5" r="4" fill="#10d9a3"/>
      <rect x="-2" y="-5" width="4" height="10" fill="#10d9a3"/>
    </g>
    
    <!-- Bottom rows -->
    <rect x="-100" y="-40" width="40" height="40" fill="#1e293b" rx="4"/>
    <rect x="60" y="-40" width="40" height="40" fill="#1e293b" rx="4"/>
    
    <rect x="-100" y="10" width="40" height="40" fill="#1e293b" rx="4"/>
    <rect x="-50" y="10" width="40" height="40" fill="#1e293b" rx="4"/>
    <rect x="0" y="10" width="40" height="40" fill="#1e293b" rx="4"/>
    <rect x="50" y="10" width="40" height="40" fill="#1e293b" rx="4"/>
    
    <rect x="-100" y="60" width="40" height="40" fill="#1e293b" rx="4"/>
    <rect x="-50" y="60" width="40" height="40" fill="#1e293b" rx="4"/>
    <rect x="50" y="60" width="40" height="40" fill="#1e293b" rx="4"/>
    <rect x="100" y="60" width="20" height="40" fill="#1e293b" rx="4"/>
    
    <!-- Bottom center vertical line -->
    <rect x="-10" y="100" width="20" height="60" fill="#1e293b" rx="4"/>
  </g>
  
  <!-- Title -->
  <text x="250" y="280" font-family="Arial, sans-serif" font-size="72" font-weight="bold" fill="white">
    priv QR
  </text>
  
  <!-- Subtitle -->
  <text x="250" y="330" font-family="Arial, sans-serif" font-size="32" fill="#e2e8f0">
    Professional QR Code Generator
  </text>
  
  <!-- Features -->
  <text x="250" y="380" font-family="Arial, sans-serif" font-size="24" fill="#cbd5e1">
    🔒 Privacy-First • ⚡ Offline-Capable • 📱 Professional-Grade
  </text>
  
  <!-- CTA -->
  <text x="250" y="430" font-family="Arial, sans-serif" font-size="20" fill="#10d9a3">
    Generate Crypto, IoT, and Bulk QR Codes
  </text>
  
  <!-- Website -->
  <text x="250" y="480" font-family="Arial, sans-serif" font-size="24" font-weight="bold" fill="white">
    privqr.com
  </text>
  
  <!-- Decorative QR pattern on the right -->
  <g transform="translate(900, 150)">
    <rect x="0" y="0" width="200" height="200" fill="rgba(255,255,255,0.1)" rx="8"/>
    <g fill="rgba(255,255,255,0.2)">
      <rect x="20" y="20" width="20" height="20" rx="2"/>
      <rect x="60" y="20" width="20" height="20" rx="2"/>
      <rect x="100" y="20" width="20" height="20" rx="2"/>
      <rect x="140" y="20" width="20" height="20" rx="2"/>
      
      <rect x="20" y="60" width="20" height="20" rx="2"/>
      <rect x="100" y="60" width="20" height="20" rx="2"/>
      <rect x="140" y="60" width="20" height="20" rx="2"/>
      
      <rect x="20" y="100" width="20" height="20" rx="2"/>
      <rect x="60" y="100" width="20" height="20" rx="2"/>
      <rect x="100" y="100" width="20" height="20" rx="2"/>
      <rect x="140" y="100" width="20" height="20" rx="2"/>
      
      <rect x="20" y="140" width="20" height="20" rx="2"/>
      <rect x="60" y="140" width="20" height="20" rx="2"/>
      <rect x="140" y="140" width="20" height="20" rx="2"/>
    </g>
  </g>
</svg>