<svg xmlns="http://www.w3.org/2000/svg" viewBox="0 0 512 512">
  <!-- Monochrome version for Safari pinned tab -->
  <g transform="translate(256, 256)">
    <!-- Shield path -->
    <path d="M-120,-180 L120,-180 C140,-180 160,-160 160,-140 L160,-20 C160,80 80,160 0,200 C-80,160 -160,80 -160,-20 L-160,-140 C-160,-160 -140,-180 -120,-180 Z M-100,-140 L-100,-100 L-60,-100 L-60,-140 Z M-10,-140 L-10,-100 L30,-100 L30,-140 Z M60,-140 L60,-100 L100,-100 L100,-140 Z M-100,-90 L-100,-50 L-60,-50 L-60,-90 Z M60,-90 L60,-50 L100,-50 L100,-90 Z M-25,-65 C-25,-55 -15,-65 0,-65 C15,-65 25,-55 25,-40 L25,-25 L-25,-25 L-25,-40 C-25,-55 -15,-65 0,-65 Z M-35,-25 L35,-25 L35,25 L-35,25 Z M-4,0 L4,0 L4,10 L-4,10 Z M-100,-40 L-100,0 L-60,0 L-60,-40 Z M60,-40 L60,0 L100,0 L100,-40 Z M-100,10 L-100,50 L-60,50 L-60,10 Z M-10,10 L-10,50 L30,50 L30,10 Z M60,10 L60,50 L100,50 L100,10 Z M-100,60 L-100,100 L-60,100 L-60,60 Z M60,60 L60,100 L100,100 L100,60 Z M-10,100 L-10,160 L10,160 L10,100 Z" 
          fill="#000000"/>
  </g>
</svg>